<svg xmlns="http://www.w3.org/2000/svg" version="1.1" xmlns:xlink="http://www.w3.org/1999/xlink" width="200" height="200"><svg xmlns="http://www.w3.org/2000/svg" version="1.1" xmlns:xlink="http://www.w3.org/1999/xlink" viewBox="0 0 200 200"><rect width="200" height="200" fill="url('#gradient')"></rect><defs><linearGradient id="SvgjsLinearGradient1001" gradientTransform="rotate(135 0.5 0.5)"><stop offset="0%" stop-color="#000000"></stop><stop offset="100%" stop-color="#ffffff"></stop></linearGradient></defs><g><g fill="#211e23" transform="matrix(5.4938897168405365,0,0,5.4938897168405365,4.103099040764803,139.06093148673523)" stroke="#ffffff" stroke-width="0.15"><path d="M4.50-14.22L4.50-2.64L10.47-2.64L10.47 0L1.07 0L1.07-14.22L4.50-14.22ZM21.07-14.22L21.07-11.57L16.81-11.57L16.81 0L13.38 0L13.38-11.57L9.19-11.57L9.19-14.22L21.07-14.22ZM33.84-14.22L33.84-11.57L29.57-11.57L29.57 0L26.14 0L26.14-11.57L21.95-11.57L21.95-14.22L33.84-14.22Z"></path></g></g></svg><style>@media (prefers-color-scheme: light) { :root { filter: none; } }
@media (prefers-color-scheme: dark) { :root { filter: none; } }
</style></svg>